<svg xmlns="http://www.w3.org/2000/svg" viewBox="0 0 109.97 35.42"><defs><style>.cls-1,.cls-6{fill:none;}.cls-1{stroke:#32587a;stroke-miterlimit:10;}.cls-2,.cls-3{fill:#32587a;}.cls-3{font-size:4px;font-family:SourceSansPro-Regular, Source Sans Pro;}.cls-4{letter-spacing:-0.01em;}.cls-5{letter-spacing:-0.01em;}.cls-6{stroke:#b41516;stroke-linejoin:round;stroke-width:1.5px;}.cls-7{fill:#b41516;}</style></defs><title>ReDU_logo_sticker</title><g id="Layer_14" data-name="Layer 14"><circle class="cls-1" cx="24.71" cy="24.29" r="3.83"/></g><g id="Layer_13" data-name="Layer 13"><line class="cls-1" x1="22.1" y1="21.48" x2="15.71" y2="14.02"/></g><g id="Layer_12" data-name="Layer 12"><path class="cls-2" d="M35.85,4.1h7.94c5.5,0,9.07,2,9.07,7.31,0,4.41-2.73,7-7.1,7.52l7.65,12.85H51.18L43.66,19.05H37.78V31.78H35.85Zm7.43,13.36c4.88,0,7.61-2,7.61-6.05s-2.73-5.67-7.61-5.67h-5.5V17.46Z" transform="translate(-3.15 -0.96)"/><path class="cls-2" d="M53.41,21.74c0-6.59,4.28-10.63,8.78-10.63,4.79,0,7.73,3.41,7.73,9.33A5.94,5.94,0,0,1,69.79,22H55.3c.08,5.08,3.06,8.74,7.6,8.74a8.87,8.87,0,0,0,5.42-1.81l.76,1.43a11.25,11.25,0,0,1-6.35,2C57.57,32.29,53.41,28.34,53.41,21.74Zm14.74-1.3c0-5.17-2.31-7.73-5.92-7.73-3.45,0-6.51,2.9-6.93,7.73Z" transform="translate(-3.15 -0.96)"/><path class="cls-2" d="M72.7,4.1h6.43c8.52,0,12.56,5.38,12.56,13.74s-4,13.94-12.52,13.94H72.7Zm6.22,26c7.52,0,10.75-5.08,10.75-12.3S86.44,5.74,78.92,5.74H74.63v24.4Z" transform="translate(-3.15 -0.96)"/><path class="cls-2" d="M94.47,21.15V4.1h1.94V20.94c0,7.35,3.44,9.58,7.35,9.58s7.56-2.23,7.56-9.58V4.1h1.8v17c0,8.66-4.57,11.14-9.36,11.14S94.47,29.81,94.47,21.15Z" transform="translate(-3.15 -0.96)"/></g><g id="Layer_11" data-name="Layer 11"><text class="cls-3" transform="translate(4.14 33.67)"><tspan class="cls-4">r</tspan><tspan x="1.35" y="0">edu.ucsd</tspan><tspan class="cls-5" x="16.62" y="0">.</tspan><tspan x="17.57" y="0">edu</tspan></text></g><g id="Layer_10" data-name="Layer 10"><circle class="cls-1" cx="19.63" cy="4.32" r="3.08"/></g><g id="Layer_9" data-name="Layer 9"><line class="cls-1" x1="18.48" y1="7.17" x2="15.71" y2="14.02"/></g><g id="Layer_8" data-name="Layer 8"><circle class="cls-2" cx="15.71" cy="14.02" r="4.65"/></g><g id="Layer_7" data-name="Layer 7"><polyline class="cls-6" points="19.3 20.71 27.25 20.68 21.45 10.72"/><polygon class="cls-7" points="20.99 22.93 20.04 20.71 20.97 18.48 15.71 20.72 20.99 22.93"/></g><g id="Layer_6" data-name="Layer 6"><polyline class="cls-6" points="9.91 10.76 15.64 0.75 19.64 7.62"/><polygon class="cls-7" points="16.88 7.28 19.27 6.98 20.72 5.05 21.45 10.72 16.88 7.28"/></g><g id="Layer_5" data-name="Layer 5"><polyline class="cls-6" points="8.13 13.86 4.18 20.76 15.71 20.72"/><polygon class="cls-7" points="5.37 14.22 7.76 14.51 9.22 16.43 9.91 10.76 5.37 14.22"/></g><g id="Layer_4" data-name="Layer 4"><circle class="cls-1" cx="3.88" cy="8.62" r="3.38"/><line class="cls-1" x1="6.91" y1="10.13" x2="15.71" y2="14.02"/></g><g id="Layer_3" data-name="Layer 3"><circle class="cls-2" cx="26.97" cy="14.02" r="2.43"/><line class="cls-1" x1="26.97" y1="14.02" x2="15.71" y2="14.02"/></g><g id="Layer_2" data-name="Layer 2"><circle class="cls-2" cx="9.21" cy="27.51" r="2.97"/><line class="cls-1" x1="9.21" y1="27.51" x2="15.71" y2="14.02"/></g></svg>